<svg width="623" height="453" viewBox="0 0 623 453" fill="none" xmlns="http://www.w3.org/2000/svg">
<g opacity="0.28">
<path opacity="0.28" d="M328.27 388.696L193.294 313.137C188.405 310.4 188.405 303.558 193.295 300.821L343.055 217C348.052 214.203 354.207 214.197 359.21 216.985L497.215 293.88C502.116 296.611 502.123 303.463 497.228 306.203L349.866 388.695C343.185 392.436 334.952 392.436 328.27 388.696Z" fill="#CDE9F9"/>
</g>
<g opacity="0.46">
<path opacity="0.46" d="M193.545 181.562L126.344 219.078C123.797 220.5 120.617 218.717 120.617 215.868V195.702C120.617 194.377 121.347 193.153 122.531 192.492L189.732 154.976C192.279 153.553 195.459 155.336 195.459 158.185V178.352C195.459 179.676 194.729 180.9 193.545 181.562Z" fill="#CDE9F9"/>
</g>
<g opacity="0.46">
<path opacity="0.46" d="M276.599 150.447L209.398 187.963C206.851 189.385 203.671 187.602 203.671 184.753V164.586C203.671 163.262 204.401 162.037 205.585 161.376L272.786 123.86C275.333 122.438 278.513 124.221 278.513 127.07V147.236C278.513 148.561 277.783 149.786 276.599 150.447Z" fill="#CDE9F9"/>
</g>
<g opacity="0.46">
<path opacity="0.46" d="M282.882 109.765L215.681 147.282C213.134 148.704 209.954 146.921 209.954 144.072V123.905C209.954 122.581 210.683 121.356 211.868 120.695L279.069 83.1791C281.615 81.7571 284.795 83.5396 284.795 86.389V106.555C284.795 107.88 284.066 109.104 282.882 109.765Z" fill="#CDE9F9"/>
</g>
<path d="M483.816 160.271V308.628C483.816 311.21 482.383 313.592 480.063 314.861L471.064 319.776L468.938 180.618L468.685 164.053L298.894 66.5109L307.227 61.845C309.964 60.3124 313.336 60.3124 316.074 61.845L479.779 153.487C481.274 154.325 482.422 155.586 483.104 157.062C483.567 158.055 483.816 159.146 483.816 160.271Z" fill="#CDE9F9"/>
<path d="M483.816 160.271V308.628C483.816 311.21 482.383 313.592 480.063 314.861L471.064 319.776L468.938 180.618V164.789L483.104 157.062C483.567 158.055 483.816 159.146 483.816 160.271Z" fill="#AECFDC"/>
<path d="M298.896 218.472V66.509L465.39 159.71C468.901 161.676 471.065 165.309 471.065 169.241V319.776L303.452 226.116C300.633 224.541 298.896 221.626 298.896 218.472Z" fill="#7CCAF1"/>
<path d="M298.896 218.472V66.509L465.39 159.71C468.901 161.676 471.065 165.309 471.065 169.241V319.776L303.452 226.116C300.633 224.541 298.896 221.626 298.896 218.472Z" fill="url(#paint0_linear_53_2303)"/>
<path d="M307.961 182.216L347.056 204.101C348.822 205.089 349.909 206.915 349.909 208.892V208.977C349.909 210.692 347.994 211.764 346.462 210.907L307.425 189.054C306.093 188.309 305.273 186.932 305.273 185.441V183.72C305.273 182.383 306.766 181.547 307.961 182.216Z" fill="#17A1DB"/>
<path d="M307.961 192.67L347.056 214.555C348.822 215.543 349.909 217.369 349.909 219.346V219.431C349.909 221.146 347.994 222.218 346.462 221.361L307.425 199.508C306.093 198.763 305.273 197.386 305.273 195.895V194.174C305.273 192.837 306.766 192.001 307.961 192.67Z" fill="#E7F6FD"/>
<path d="M307.961 202.878L347.056 224.762C348.822 225.751 349.909 227.577 349.909 229.554V229.639C349.909 231.354 347.994 232.426 346.462 231.568L307.425 209.716C306.093 208.971 305.273 207.594 305.273 206.103V204.382C305.273 203.045 306.766 202.209 307.961 202.878Z" fill="#17A1DB"/>
<path d="M307.961 213.331L347.056 235.216C348.822 236.204 349.909 238.031 349.909 240.007V240.092C349.909 241.808 347.994 242.88 346.462 242.022L307.425 220.17C306.093 219.425 305.273 218.047 305.273 216.556V214.836C305.273 213.499 306.766 212.663 307.961 213.331Z" fill="#17A1DB"/>
<path d="M364.379 119.048L462.23 173.825C463.419 174.491 464.152 175.721 464.152 177.053V276.663C464.152 279.029 461.509 280.509 459.396 279.325L365.575 226.805C363.441 225.611 362.126 223.403 362.126 221.014V120.309C362.127 119.189 363.378 118.488 364.379 119.048Z" fill="url(#paint1_linear_53_2303)"/>
<path d="M358.538 121.313L456.389 176.09C457.579 176.756 458.311 177.986 458.311 179.318V278.928C458.311 281.294 455.669 282.774 453.555 281.59L359.734 229.071C357.6 227.876 356.285 225.668 356.285 223.279V122.574C356.286 121.454 357.537 120.753 358.538 121.313Z" fill="white"/>
<path d="M362.41 142.256V192.492C362.41 194.138 363.322 195.658 364.798 196.471L389.724 210.205C391.876 211.391 394.545 209.884 394.545 207.485V158.358C394.545 156.621 393.579 155.02 392.018 154.17L366.199 140.106C364.503 139.183 362.41 140.37 362.41 142.256Z" fill="url(#paint2_linear_53_2303)"/>
<path d="M400.863 162.816L400.914 178.344C400.919 179.735 401.685 181.019 402.926 181.717L448.361 207.281C449.948 208.174 451.935 207.064 451.935 205.286V190.307C451.935 188.802 451.107 187.411 449.762 186.658L404.012 161.048C402.61 160.263 400.858 161.247 400.863 162.816Z" fill="#BD8AAE"/>
<path d="M403.724 189.443L449.862 215.271C451.145 215.989 451.935 217.316 451.935 218.752V219.798C451.935 221.474 450.063 222.522 448.565 221.684L402.741 196.032C401.572 195.377 400.851 194.168 400.851 192.859V191.051C400.851 189.622 402.447 188.729 403.724 189.443Z" fill="#BD8AAE"/>
<path d="M400.922 205.745V235.719C400.922 237.013 401.633 238.208 402.787 238.856L423.034 250.222C424.526 251.059 426.393 250.016 426.393 248.345V218.918C426.393 217.368 425.537 215.937 424.15 215.166L404.037 203.995C402.65 203.225 400.922 204.195 400.922 205.745Z" fill="#306097"/>
<path d="M432.805 223.622V253.33C432.805 254.794 433.611 256.148 434.919 256.88L448.32 264.382C449.927 265.281 451.935 264.157 451.935 262.358V233.737C451.935 231.864 450.905 230.133 449.231 229.196L436.04 221.812C434.602 221.007 432.805 222.012 432.805 223.622Z" fill="#3C7FBE"/>
<path d="M376.141 209.444C370.88 206.53 366.576 208.908 366.576 214.728C366.576 220.548 370.88 227.751 376.141 230.735C381.402 233.719 385.706 231.341 385.706 225.451C385.706 219.562 381.402 212.359 376.141 209.444Z" fill="#3C7FBE"/>
<path d="M356.286 126.919L458.276 184.285V179.277C458.276 177.971 457.558 176.764 456.391 176.11L358.508 121.297C357.52 120.744 356.286 121.435 356.286 122.541V126.919Z" fill="#3C7FBE"/>
<path d="M360.731 124.343C359.807 123.831 359.052 124.249 359.052 125.27C359.052 126.292 359.807 127.556 360.731 128.08C361.654 128.604 362.41 128.187 362.41 127.153C362.41 126.119 361.654 124.854 360.731 124.343Z" fill="white"/>
<path d="M366.113 127.414C365.189 126.902 364.434 127.319 364.434 128.341C364.434 129.363 365.189 130.628 366.113 131.151C367.037 131.675 367.792 131.258 367.792 130.224C367.792 129.19 367.037 127.925 366.113 127.414Z" fill="#E7F6FD"/>
<path d="M371.41 130.224C370.486 129.712 369.731 130.129 369.731 131.151C369.731 132.173 370.487 133.437 371.41 133.961C372.334 134.485 373.089 134.068 373.089 133.034C373.089 132 372.334 130.736 371.41 130.224Z" fill="#CDE9F9"/>
<path d="M315.933 92.8438L353.658 113.962C355.193 114.821 356.139 116.409 356.139 118.128V195.085C356.139 197.723 353.193 199.371 350.837 198.052L313.836 177.339C312.392 176.531 311.503 175.038 311.503 173.421V95.3232C311.503 93.119 313.964 91.7415 315.933 92.8438Z" fill="url(#paint3_linear_53_2303)"/>
<path d="M309.703 93.9763L347.428 115.094C348.963 115.954 349.909 117.542 349.909 119.26V196.217C349.909 198.855 346.963 200.504 344.607 199.185L307.606 178.472C306.162 177.663 305.273 176.17 305.273 174.554V96.4557C305.273 94.2515 307.734 92.874 309.703 93.9763Z" fill="#222457"/>
<path d="M309.703 93.9763L347.428 115.094C348.963 115.954 349.909 117.542 349.909 119.26V196.217C349.909 198.855 346.963 200.504 344.607 199.185L307.606 178.472C306.162 177.663 305.273 176.17 305.273 174.554V96.4557C305.273 94.2515 307.734 92.874 309.703 93.9763Z" fill="url(#paint4_linear_53_2303)"/>
<path d="M308.343 99.8558V101.026L313.412 103.86V102.69L308.343 99.8558Z" fill="#CDE9F9"/>
<path d="M308.343 101.993V103.163L313.412 105.997V104.827L308.343 101.993Z" fill="#CDE9F9"/>
<path d="M308.343 104.13V105.3L313.412 108.135V106.965L308.343 104.13Z" fill="#CDE9F9"/>
<path d="M346.599 128.83V127.66L315.314 110.165V111.335L346.599 128.83Z" fill="#CDE9F9"/>
<path d="M308.343 106.267V107.437L313.412 110.272V109.101L308.343 106.267Z" fill="#CDE9F9"/>
<path d="M308.343 108.404V109.574L313.412 112.409V111.239L308.343 108.404Z" fill="#CDE9F9"/>
<path d="M346.599 130.967V129.797L315.314 112.302V113.472L346.599 130.967Z" fill="#CDE9F9"/>
<path d="M308.343 114.816V115.985L313.412 118.82V117.65L308.343 114.816Z" fill="#CDE9F9"/>
<path d="M308.343 116.953V118.123L313.412 120.957V119.787L308.343 116.953Z" fill="#CDE9F9"/>
<path d="M308.343 125.501V126.671L313.412 129.505V128.336L308.343 125.501Z" fill="#CDE9F9"/>
<path d="M308.343 127.638V128.808L313.412 131.642V130.473L308.343 127.638Z" fill="#CDE9F9"/>
<path d="M335.05 142.573L315.314 131.536V132.706L335.05 143.743V142.573Z" fill="#CDE9F9"/>
<path d="M336.091 143.155V144.325L346.599 150.201V149.031L336.091 143.155Z" fill="#CDE9F9"/>
<path d="M325.23 134.944L315.314 129.399V130.569L325.23 136.114V134.944Z" fill="#CDE9F9"/>
<path d="M326.27 135.526V136.696L346.599 148.064V146.894L326.27 135.526Z" fill="#CDE9F9"/>
<path d="M343.924 138.987V140.157L346.599 141.652V140.483L343.924 138.987Z" fill="#CDE9F9"/>
<path d="M329.371 128.712L315.314 120.851V122.021L329.371 129.882V128.712Z" fill="#CDE9F9"/>
<path d="M323.611 108.394L315.314 103.754V104.924L323.611 109.564V108.394Z" fill="#CDE9F9"/>
<path d="M337.211 115.999L324.651 108.975V110.146L337.211 117.169V115.999Z" fill="#CDE9F9"/>
<path d="M329.891 114.043L321.048 109.098V110.268L329.891 115.213V114.043Z" fill="#CDE9F9"/>
<path d="M339.169 119.231L330.931 114.624V115.795L339.169 120.401V119.231Z" fill="#CDE9F9"/>
<path d="M340.21 119.813V120.983L346.599 124.556V123.386L340.21 119.813Z" fill="#CDE9F9"/>
<path d="M316.948 108.942V110.112L323.611 113.838V112.668L316.948 108.942Z" fill="#CDE9F9"/>
<path d="M343.992 124.065L324.651 113.25V114.42L343.992 125.235V124.065Z" fill="#CDE9F9"/>
<path d="M332.919 124.284L320.28 117.216V118.386L332.919 125.454V124.284Z" fill="#CDE9F9"/>
<path d="M343.992 130.477L333.959 124.866V126.036L343.992 131.647V130.477Z" fill="#CDE9F9"/>
<path d="M342.884 136.268L330.411 129.293V130.463L342.884 137.438V136.268Z" fill="#CDE9F9"/>
<path d="M336.091 134.607V135.777L342.884 139.575V138.405L336.091 134.607Z" fill="#CDE9F9"/>
<path d="M317.76 124.356L315.314 122.988V124.158L317.76 125.526V124.356Z" fill="#CDE9F9"/>
<path d="M322.343 126.918V128.088L335.051 135.195V134.025L322.343 126.918Z" fill="#CDE9F9"/>
<path d="M321.302 126.337L318.8 124.938V126.107L321.302 127.507V126.337Z" fill="#CDE9F9"/>
<path d="M332.7 134.847L318.8 127.075V128.245L332.7 136.017V134.847Z" fill="#CDE9F9"/>
<path d="M308.343 133.768V134.938L313.412 137.772V136.602L308.343 133.768Z" fill="#BD8AAE"/>
<path d="M308.343 135.905V137.075L313.412 139.91V138.74L308.343 135.905Z" fill="#BD8AAE"/>
<path d="M308.343 138.042V139.212L313.412 142.047V140.877L308.343 138.042Z" fill="#BD8AAE"/>
<path d="M346.599 162.742V161.572L315.314 144.077V145.247L346.599 162.742Z" fill="#BD8AAE"/>
<path d="M308.343 140.179V141.349L313.412 144.184V143.014L308.343 140.179Z" fill="#BD8AAE"/>
<path d="M308.343 142.316V143.486L313.412 146.321V145.151L308.343 142.316Z" fill="#BD8AAE"/>
<path d="M346.599 164.879V163.709L315.314 146.214V147.384L346.599 164.879Z" fill="#BD8AAE"/>
<path d="M308.343 148.728V149.898L313.412 152.732V151.562L308.343 148.728Z" fill="#BD8AAE"/>
<path d="M308.343 150.865V152.035L313.412 154.869V153.699L308.343 150.865Z" fill="#BD8AAE"/>
<path d="M308.343 159.413V160.583L313.412 163.418V162.248L308.343 159.413Z" fill="#BD8AAE"/>
<path d="M308.343 161.55V162.72L313.412 165.555V164.385L308.343 161.55Z" fill="#BD8AAE"/>
<path d="M335.05 176.485L315.314 165.448V166.619L335.05 177.655V176.485Z" fill="#BD8AAE"/>
<path d="M336.091 177.067V178.237L346.599 184.113V182.943L336.091 177.067Z" fill="#BD8AAE"/>
<path d="M325.23 168.856L315.314 163.311V164.481L325.23 170.026V168.856Z" fill="#BD8AAE"/>
<path d="M326.27 169.438V170.608L346.599 181.976V180.806L326.27 169.438Z" fill="#BD8AAE"/>
<path d="M343.924 172.899V174.069L346.599 175.564V174.395L343.924 172.899Z" fill="#BD8AAE"/>
<path d="M329.371 162.624L315.314 154.763V155.933L329.371 163.794V162.624Z" fill="#BD8AAE"/>
<path d="M323.611 142.306L315.314 137.666V138.836L323.611 143.476V142.306Z" fill="#BD8AAE"/>
<path d="M337.211 149.912L324.651 142.887V144.058L337.211 151.081V149.912Z" fill="#BD8AAE"/>
<path d="M329.891 147.955L321.048 143.01V144.18L329.891 149.125V147.955Z" fill="#BD8AAE"/>
<path d="M339.169 153.143L330.931 148.537V149.707L339.169 154.313V153.143Z" fill="#BD8AAE"/>
<path d="M340.21 153.725V154.895L346.599 158.468V157.298L340.21 153.725Z" fill="#BD8AAE"/>
<path d="M316.948 142.854V144.024L323.611 147.75V146.58L316.948 142.854Z" fill="#BD8AAE"/>
<path d="M343.992 157.977L324.651 147.162V148.332L343.992 159.147V157.977Z" fill="#BD8AAE"/>
<path d="M332.919 158.197L320.28 151.128V152.298L332.919 159.367V158.197Z" fill="#BD8AAE"/>
<path d="M343.992 164.389L333.959 158.778V159.948L343.992 165.559V164.389Z" fill="#BD8AAE"/>
<path d="M342.884 170.18L330.411 163.206V164.376L342.884 171.35V170.18Z" fill="#BD8AAE"/>
<path d="M336.091 168.519V169.688L342.884 173.487V172.317L336.091 168.519Z" fill="#BD8AAE"/>
<path d="M317.76 158.268L315.314 156.9V158.07L317.76 159.438V158.268Z" fill="#BD8AAE"/>
<path d="M322.343 160.83V162L335.051 169.107V167.937L322.343 160.83Z" fill="#BD8AAE"/>
<path d="M321.302 160.249L318.8 158.85V160.019L321.302 161.418V160.249Z" fill="#BD8AAE"/>
<path d="M332.7 168.759L318.8 160.987V162.157L332.7 169.929V168.759Z" fill="#BD8AAE"/>
<path d="M316.996 171.093C316.866 171.222 316.804 171.473 316.803 171.842L316.798 173.481V173.523C316.797 173.835 316.694 174.002 316.489 174.025C316.284 174.047 315.99 173.951 315.611 173.739L315.607 174.88C315.986 175.092 316.28 175.325 316.484 175.58C316.689 175.836 316.79 176.133 316.79 176.471L316.785 178.092C316.784 178.46 316.845 178.78 316.973 179.058C317.099 179.334 317.3 179.595 317.577 179.845C317.853 180.095 318.235 180.355 318.72 180.626L318.723 179.546C318.409 179.358 318.197 179.175 318.085 178.994C317.973 178.81 317.919 178.597 317.92 178.349L317.924 176.797V176.737C317.926 176.117 317.575 175.555 316.866 175.039V174.979C317.566 175.256 317.919 175.065 317.931 174.409L317.936 172.857C317.936 172.606 317.995 172.456 318.108 172.401C318.221 172.346 318.433 172.404 318.744 172.567L318.747 171.486C318.269 171.219 317.89 171.053 317.609 170.991C317.325 170.927 317.123 170.962 316.996 171.093Z" fill="#CDE9F9"/>
<path d="M323.603 178.007C323.406 177.759 323.304 177.477 323.305 177.165V177.123L323.309 175.484C323.311 174.955 323.168 174.502 322.876 174.121C322.586 173.742 322.084 173.354 321.368 172.953L321.364 174.033C321.675 174.218 321.89 174.4 322.002 174.58C322.114 174.758 322.169 174.975 322.168 175.226L322.163 176.777C322.175 177.447 322.533 178.036 323.232 178.541V178.602C322.883 178.468 322.617 178.44 322.435 178.526C322.25 178.612 322.157 178.808 322.156 179.12V179.166L322.152 180.717C322.151 180.968 322.096 181.124 321.983 181.179C321.87 181.23 321.655 181.175 321.344 181.012L321.341 182.092C322.054 182.491 322.556 182.662 322.851 182.609C323.142 182.555 323.289 182.264 323.291 181.732L323.296 180.112C323.297 179.774 323.4 179.591 323.598 179.561C323.8 179.533 324.09 179.627 324.476 179.843L324.48 178.702C324.094 178.487 323.804 178.256 323.603 178.007Z" fill="#CDE9F9"/>
<path d="M327.849 177.007C327.718 177.136 327.656 177.386 327.655 177.755L327.65 179.395V179.437C327.649 179.749 327.546 179.916 327.341 179.938C327.136 179.96 326.842 179.864 326.463 179.652L326.46 180.793C326.839 181.005 327.132 181.238 327.337 181.493C327.541 181.749 327.643 182.046 327.642 182.384L327.637 184.004C327.636 184.373 327.697 184.693 327.826 184.971C327.952 185.247 328.152 185.508 328.429 185.758C328.705 186.008 329.087 186.268 329.572 186.539L329.575 185.459C329.261 185.271 329.05 185.088 328.937 184.907C328.825 184.723 328.771 184.51 328.772 184.262L328.776 182.71V182.65C328.778 182.03 328.427 181.468 327.718 180.952L327.718 180.892C328.418 181.169 328.771 180.978 328.783 180.322L328.788 178.77C328.789 178.519 328.847 178.369 328.96 178.314C329.073 178.259 329.285 178.317 329.595 178.48L329.599 177.399C329.12 177.132 328.742 176.965 328.461 176.904C328.177 176.84 327.976 176.876 327.849 177.007Z" fill="#CDE9F9"/>
<path d="M334.456 183.92C334.258 183.672 334.156 183.39 334.157 183.078V183.037L334.162 181.397C334.163 180.869 334.021 180.416 333.728 180.034C333.438 179.655 332.937 179.268 332.22 178.866L332.217 179.947C332.527 180.132 332.742 180.313 332.855 180.494C332.967 180.672 333.021 180.888 333.02 181.139L333.016 182.691C333.027 183.36 333.385 183.949 334.084 184.455V184.516C333.736 184.382 333.469 184.354 333.288 184.439C333.103 184.526 333.01 184.722 333.009 185.034V185.08L333.004 186.632C333.004 186.883 332.948 187.038 332.835 187.093C332.723 187.144 332.507 187.089 332.197 186.926L332.193 188.006C332.907 188.405 333.409 188.576 333.703 188.524C333.994 188.469 334.142 188.179 334.144 187.646L334.148 186.026C334.15 185.688 334.252 185.505 334.451 185.475C334.653 185.447 334.943 185.541 335.329 185.757L335.332 184.616C334.947 184.401 334.657 184.17 334.456 183.92Z" fill="#CDE9F9"/>
<path d="M309.074 96.2775C309.074 96.7366 309.413 97.3043 309.828 97.5395C310.243 97.7747 310.582 97.5874 310.582 97.1227C310.582 96.658 310.243 96.0903 309.828 95.8608C309.413 95.6312 309.074 95.8185 309.074 96.2775Z" fill="#E7F6FD"/>
<path d="M311.491 97.6569C311.491 98.1159 311.831 98.6837 312.246 98.9188C312.66 99.154 313 98.9668 313 98.5021C313 98.0374 312.66 97.4696 312.246 97.2401C311.831 97.0106 311.491 97.1982 311.491 97.6569Z" fill="#E7F6FD"/>
<path d="M314.625 98.5025C314.21 98.2726 313.87 98.4603 313.87 98.9193C313.87 99.3783 314.21 99.9461 314.625 100.181C315.039 100.416 315.379 100.229 315.379 99.7645C315.379 99.2998 315.039 98.7324 314.625 98.5025Z" fill="#E7F6FD"/>
<path d="M224.045 305.091C204.196 293.98 204.196 275.737 224.045 264.55C243.894 253.364 276.373 253.364 296.222 264.55C316.071 275.737 316.071 293.98 296.222 305.091C276.373 316.202 243.894 316.202 224.045 305.091Z" fill="#2A2F6D"/>
<path d="M234.482 230.98C239.514 230.98 243.593 224.815 243.593 217.21C243.593 209.605 239.514 203.44 234.482 203.44C229.451 203.44 225.372 209.605 225.372 217.21C225.372 224.815 229.451 230.98 234.482 230.98Z" fill="url(#paint5_linear_53_2303)"/>
<path d="M285.009 199.27C283.617 201.105 281.99 202.878 280.089 204.548C263.372 219.223 245.631 219.17 237.127 218.027C234.411 217.662 232.591 215.058 233.307 212.571L234.342 208.975L233.185 212.993L233.296 212.603C233.854 210.628 235.842 209.398 237.995 209.692C244.743 210.612 259.677 210.779 273.979 198.223C283.27 190.066 284.285 178.317 284.131 172.414C284.076 170.299 285.64 168.527 287.823 168.274C290.466 167.968 292.877 169.977 292.947 172.538C293.115 178.732 292.204 189.793 285.009 199.27Z" fill="#CDE9F9"/>
<path d="M293.39 149.163C293.39 149.163 283.6 153.813 281.989 162.108C280.378 170.402 286.079 178.822 293.39 178.319C300.702 177.816 307.642 171.659 307.642 171.659L303.552 162.61C303.552 162.61 298.94 167.603 294.678 167.809C290.416 168.014 287.525 159.468 296.654 155.573L293.39 149.163Z" fill="url(#paint6_linear_53_2303)"/>
<path d="M309.765 270.749V252.696L294.543 254.469C287.741 251.659 279.39 250.286 270.547 250.286V251.006C271.957 251.006 273.348 251.043 274.718 251.114C269.401 251.024 263.221 251.356 256.185 252.162C260.93 251.405 265.758 251.006 270.544 251.006L270.547 250.286C270.546 250.286 270.545 250.286 270.544 250.286C256.08 250.286 240.311 253.954 227.904 260.996C227.024 261.495 226.185 262.007 225.366 262.525L209.015 264.429V285.926C209.015 285.926 209.031 285.932 209.056 285.941C209.337 291.78 212.927 297.199 220.027 301.229C227.429 305.43 237.487 307.469 248.273 307.469C262.736 307.469 278.506 303.8 290.913 296.758C303.364 289.692 309.815 280.706 309.77 272.474C309.837 271.378 309.765 270.749 309.765 270.749ZM237.963 306.067C235.705 305.759 233.531 305.348 231.462 304.839C233.693 305.348 235.859 305.749 237.963 306.067ZM231.216 304.781C231.131 304.76 231.046 304.738 230.962 304.716C231.048 304.737 231.128 304.76 231.216 304.781Z" fill="#2A2F6D"/>
<path d="M303.694 230.334L305.747 244.019L292.364 268.249" stroke="#C4CACB" stroke-width="5" stroke-miterlimit="10"/>
<path d="M299.628 235.973C299.628 235.973 300.233 232.409 302.701 232.199C302.701 232.199 303.304 232.089 303.634 231.557C303.963 231.025 304.148 231.954 303.781 232.766C303.414 233.579 303.414 233.579 303.414 233.579C303.414 233.579 305.335 231.935 305.115 231.401C304.896 230.866 306.981 231.61 306.762 232.834C306.542 234.057 307.984 234.727 307.428 236.84C306.872 238.952 305.746 240.971 303.593 241.265C301.439 241.558 299.628 235.973 299.628 235.973Z" fill="#FDE0D9"/>
<path d="M259.752 196.608V189.198C259.752 184.874 257.529 181.233 249.783 183.398C242.037 185.563 240.395 191.018 242.977 196.608C244.088 199.014 245.284 201.176 246.802 202.771V209.729L256.207 209.078L255.775 205.195C261.423 203.655 259.752 196.608 259.752 196.608Z" fill="#FDE0D9"/>
<path d="M234.477 230.334L230.819 225.192C230.819 225.192 233.416 211.4 237.623 209.374C245.295 205.68 265.239 204.237 275.164 211.555C285.089 218.874 283.041 240.752 287.577 239.959C292.113 239.165 300.051 234.854 300.051 234.854C300.051 234.854 304.407 234.623 303.592 241.265C303.592 241.265 291.095 257.53 281.771 258.487C272.447 259.443 263.264 246.134 263.264 246.134L234.477 230.334Z" fill="#BD8AAE"/>
<path d="M296.738 267.913C296.738 267.913 285.408 223.904 278.196 222.384C272.036 221.086 232.178 219.715 220.697 219.343C218.42 219.27 216.271 220.402 215.151 222.326C213.953 224.384 212.921 227.389 213.703 231.079C215.236 238.314 225.855 258.793 219.887 274.301C219.887 274.301 245.359 288.56 296.738 267.913Z" fill="#222457"/>
<path d="M304.005 233.839C305.494 233.839 306.701 232.669 306.701 231.225C306.701 229.781 305.494 228.611 304.005 228.611C302.515 228.611 301.308 229.781 301.308 231.225C301.308 232.669 302.515 233.839 304.005 233.839Z" fill="#2A2F6D"/>
<path d="M256.609 193.468C256.609 193.468 256.225 192.404 255.292 192.244C254.359 192.084 254.469 196.553 255.292 197.511C256.115 198.468 256.609 197.989 256.609 197.989C256.609 197.989 256.554 200.596 254.908 201.766C253.262 202.936 254.763 204.692 250.912 204.692C247.061 204.692 242.123 203.203 240.422 201.5C238.72 199.798 237.719 193.201 241.842 189.69C241.842 189.69 240.367 181.923 250.024 180.859C259.682 179.796 260.889 180.328 261.986 179.051C263.084 177.774 262.974 177.029 262.974 177.029C262.974 177.029 263.745 180.859 262.592 181.711C262.592 181.711 263.309 182.349 263.745 180.859C263.745 180.859 264.273 184.477 262.581 187.03C260.889 189.584 257.268 191.819 256.609 193.468Z" fill="#2A2F6D"/>
<path d="M257.15 292.906C254.523 292.906 251.701 292.85 248.269 292.729C235.809 292.292 229.792 290.802 220.28 285.798C213.463 282.212 209.672 276.746 209.606 270.408H209.573V139.105L209.604 139.105C209.582 134.938 211.28 129.84 214.262 125.117C216.65 121.335 221.001 115.973 228.173 111.899C240.551 104.869 256.52 104.279 270.517 104.279C283.075 104.278 293.42 109.088 298.468 111.956C301.365 113.601 303.708 115.505 305.455 117.616L304.872 118.053C305.393 118.734 305.856 119.376 306.286 120.016L306.909 119.64C308.008 121.429 308.718 123.339 309.014 125.344L309.041 125.525L309.033 125.546L309.05 125.676C309.152 126.494 309.187 127.318 309.154 128.125L309.148 128.278L309.187 128.349V268.671L309.157 268.671C308.96 276.592 303.086 282.524 290.67 287.34C280.615 291.242 270.59 292.906 257.15 292.906Z" fill="url(#paint7_linear_53_2303)"/>
<path d="M270.519 104.845C282.939 104.845 293.176 109.606 298.173 112.445C301 114.05 303.284 115.904 304.985 117.955L304.403 118.391C304.918 119.063 305.374 119.696 305.796 120.326L306.418 119.95C307.472 121.671 308.152 123.504 308.436 125.426L308.443 125.47L308.438 125.486L308.47 125.745C308.568 126.533 308.602 127.326 308.571 128.104L308.559 128.405L308.603 128.487V267.75L308.571 267.75L308.572 268.672C308.375 276.331 302.617 282.096 290.453 286.815C280.47 290.687 270.511 292.339 257.15 292.339C254.53 292.339 251.715 292.284 248.29 292.163C235.937 291.729 229.976 290.254 220.558 285.3C213.936 281.816 210.254 276.525 210.19 270.402H210.157V139.102L210.189 139.102C210.167 135.038 211.833 130.049 214.76 125.413C217.113 121.686 221.401 116.401 228.468 112.388C240.72 105.429 256.597 104.846 270.517 104.845H270.519V104.845ZM270.519 103.713C270.519 103.713 270.518 103.713 270.518 103.713C256.055 103.714 240.284 104.364 227.878 111.411C215.428 118.482 208.977 130.87 209.021 139.108L208.989 135.714V272.955L209.022 270.414C209.085 276.478 212.529 282.365 220.002 286.296C229.689 291.392 235.948 292.863 248.248 293.295C251.314 293.403 254.271 293.472 257.151 293.472C268.931 293.472 279.427 292.312 290.888 287.866C303.961 282.795 309.546 276.571 309.742 268.685L309.74 267.748C309.749 268.063 309.749 268.375 309.742 268.685L309.772 285.516V128.223C309.758 128.198 309.753 128.173 309.739 128.148C309.774 127.293 309.735 126.446 309.631 125.609C309.706 125.398 309.772 125.264 309.772 125.264H309.594C308.814 119.998 305.253 115.153 298.764 111.468C291.362 107.264 281.305 103.713 270.519 103.713ZM306.776 119.708C306.366 119.097 305.895 118.439 305.342 117.716C305.877 118.361 306.356 119.026 306.776 119.708Z" fill="#FDFEFE"/>
<g opacity="0.5">
<path opacity="0.5" d="M217.468 279.534V142.19C217.468 142.19 226.352 128.291 241.621 129.78C256.891 131.27 259.355 139.708 259.355 139.708V292.589C259.355 292.589 259.946 286.288 257.464 287.578C249.949 291.486 233.558 297.296 223.46 280.683C222.022 278.317 218.607 282.88 217.468 279.534Z" fill="url(#paint8_linear_53_2303)"/>
</g>
<path d="M281.64 244.714C286.672 244.714 290.751 238.549 290.751 230.944C290.751 223.339 286.672 217.174 281.64 217.174C276.608 217.174 272.529 223.339 272.529 230.944C272.529 238.549 276.608 244.714 281.64 244.714Z" fill="url(#paint9_linear_53_2303)"/>
<path d="M322.562 259.371C320.212 259.371 317.775 259.153 315.261 258.657C293.161 254.304 282.689 240.42 278.597 233.102C277.29 230.765 278.375 227.8 280.866 226.885L284.466 225.562L280.442 227.041L280.831 226.896C282.803 226.161 285.003 226.984 286.036 228.839C289.271 234.654 297.985 246.413 316.893 250.137C329.176 252.557 339.538 246.385 344.35 242.766C346.075 241.468 348.474 241.64 349.978 243.194C351.799 245.076 351.56 248.15 349.473 249.722C344.428 253.526 334.699 259.371 322.562 259.371Z" fill="#CDE9F9"/>
<path d="M352.593 227.128C352.593 227.128 342.803 231.778 341.192 240.073C339.581 248.367 345.282 256.787 352.593 256.284C359.905 255.782 366.845 249.624 366.845 249.624L362.755 240.575C362.755 240.575 358.144 245.568 353.881 245.774C349.619 245.979 346.728 237.434 355.857 233.538L352.593 227.128Z" fill="url(#paint10_linear_53_2303)"/>
<path d="M309.772 272.997H309.033V289.334H309.772V272.997Z" fill="#2A2F6D"/>
<path d="M354.217 279.877H309.112V326.522H354.217V279.877Z" fill="url(#paint11_linear_53_2303)"/>
<path d="M331.664 338.321C344.144 338.321 354.26 332.658 354.26 325.672C354.26 318.686 344.144 313.023 331.664 313.023C319.185 313.023 309.068 318.686 309.068 325.672C309.068 332.658 319.185 338.321 331.664 338.321Z" fill="#3C7FBE"/>
<path d="M331.664 292.939C344.144 292.939 354.26 287.276 354.26 280.29C354.26 273.304 344.144 267.641 331.664 267.641C319.185 267.641 309.068 273.304 309.068 280.29C309.068 287.276 319.185 292.939 331.664 292.939Z" fill="#17A1DB"/>
<path d="M328.504 267.813L328.498 266.655L328.494 267.727L328.501 268.885L328.504 267.813Z" fill="#2A2F6D"/>
<path d="M339.484 269.207L338.029 270.026L338.026 271.098L339.481 270.279L339.484 269.207Z" fill="#2A2F6D"/>
<path d="M322.565 270.026L321.102 269.207L321.099 270.279L322.562 271.098L322.565 270.026Z" fill="#2A2F6D"/>
<path d="M325.67 273.739C325.677 273.7 325.689 273.662 325.7 273.623C325.712 273.578 325.724 273.532 325.74 273.488C325.754 273.451 325.772 273.414 325.788 273.377C325.809 273.33 325.83 273.283 325.857 273.237C325.875 273.203 325.898 273.169 325.919 273.136C325.953 273.083 325.989 273.03 326.029 272.978C326.052 272.947 326.078 272.917 326.104 272.887C326.164 272.816 326.23 272.748 326.302 272.68C326.328 272.656 326.352 272.631 326.379 272.607C326.424 272.568 326.474 272.53 326.523 272.492C326.566 272.458 326.607 272.425 326.653 272.392C326.706 272.354 326.764 272.319 326.821 272.283C326.88 272.246 326.936 272.208 326.999 272.172C327.138 272.093 327.287 272.023 327.439 271.956C327.483 271.938 327.527 271.919 327.572 271.901C327.692 271.853 327.814 271.808 327.939 271.767C327.984 271.752 328.028 271.736 328.074 271.722C328.152 271.698 328.233 271.677 328.314 271.656C328.375 271.639 328.435 271.622 328.498 271.608C328.582 271.588 328.669 271.571 328.755 271.554C328.814 271.543 328.872 271.53 328.932 271.52C329.107 271.49 329.284 271.466 329.463 271.448C329.518 271.442 329.574 271.439 329.628 271.434C329.734 271.426 329.839 271.419 329.945 271.414C330.012 271.411 330.08 271.41 330.147 271.408C330.232 271.407 330.318 271.406 330.403 271.407C330.474 271.408 330.545 271.41 330.617 271.413C330.696 271.416 330.775 271.42 330.853 271.425C330.925 271.43 330.997 271.436 331.069 271.443C331.147 271.45 331.225 271.459 331.302 271.468C331.372 271.477 331.442 271.486 331.511 271.497C331.595 271.509 331.677 271.523 331.759 271.539C331.824 271.551 331.889 271.563 331.953 271.576C332.05 271.597 332.147 271.62 332.242 271.645C332.296 271.659 332.35 271.672 332.403 271.687C332.574 271.735 332.741 271.79 332.903 271.851C332.984 271.881 333.062 271.915 333.139 271.948C333.18 271.965 333.221 271.981 333.261 271.999C333.379 272.053 333.493 272.111 333.603 272.172C334.523 272.687 334.982 273.363 334.98 274.038L334.984 272.965C334.985 272.291 334.526 271.615 333.606 271.1C333.496 271.039 333.382 270.981 333.264 270.927C333.224 270.909 333.183 270.893 333.142 270.876C333.073 270.846 333.004 270.815 332.932 270.787C332.924 270.784 332.915 270.782 332.907 270.779C332.744 270.717 332.577 270.663 332.405 270.614C332.391 270.611 332.379 270.605 332.365 270.601C332.326 270.591 332.285 270.583 332.246 270.573C332.15 270.548 332.053 270.525 331.955 270.504C331.929 270.498 331.904 270.491 331.878 270.485C331.84 270.478 331.8 270.473 331.762 270.466C331.68 270.451 331.598 270.437 331.515 270.424C331.481 270.419 331.449 270.412 331.415 270.408C331.379 270.403 331.342 270.4 331.306 270.395C331.228 270.386 331.151 270.377 331.072 270.37C331.035 270.367 330.998 270.361 330.961 270.358C330.927 270.355 330.892 270.355 330.857 270.352C330.778 270.347 330.699 270.343 330.619 270.34C330.58 270.338 330.541 270.335 330.501 270.334C330.469 270.333 330.438 270.335 330.407 270.334C330.321 270.333 330.235 270.334 330.149 270.335C330.107 270.336 330.065 270.335 330.023 270.336C329.998 270.337 329.973 270.34 329.949 270.341C329.843 270.346 329.737 270.353 329.632 270.362C329.59 270.365 329.547 270.366 329.505 270.37C329.492 270.371 329.48 270.374 329.466 270.375C329.288 270.393 329.11 270.417 328.935 270.447C328.927 270.448 328.918 270.449 328.91 270.45C328.859 270.459 328.81 270.471 328.761 270.481C328.673 270.499 328.586 270.515 328.501 270.535C328.439 270.55 328.379 270.567 328.319 270.583C328.238 270.604 328.157 270.625 328.078 270.65C328.061 270.655 328.043 270.659 328.026 270.664C327.997 270.673 327.971 270.685 327.943 270.694C327.818 270.736 327.696 270.78 327.576 270.829C327.531 270.847 327.486 270.865 327.443 270.884C327.291 270.95 327.143 271.021 327.003 271.1C326.984 271.111 326.965 271.121 326.946 271.133C326.903 271.158 326.867 271.185 326.826 271.21C326.769 271.246 326.71 271.282 326.657 271.319C326.612 271.352 326.57 271.386 326.527 271.419C326.478 271.457 326.428 271.495 326.383 271.534C326.374 271.542 326.364 271.549 326.355 271.557C326.336 271.574 326.324 271.591 326.306 271.608C326.234 271.676 326.168 271.744 326.108 271.814C326.095 271.83 326.077 271.844 326.065 271.859C326.052 271.875 326.045 271.89 326.033 271.906C325.992 271.958 325.957 272.011 325.923 272.064C325.908 272.086 325.89 272.107 325.877 272.13C325.87 272.141 325.866 272.153 325.86 272.164C325.834 272.211 325.813 272.258 325.792 272.305C325.779 272.333 325.763 272.36 325.752 272.388C325.749 272.397 325.747 272.406 325.744 272.416C325.727 272.461 325.716 272.506 325.704 272.551C325.696 272.581 325.683 272.611 325.677 272.642C325.675 272.65 325.675 272.659 325.674 272.667C325.665 272.714 325.661 272.762 325.657 272.81C325.654 272.841 325.647 272.872 325.646 272.902C325.646 272.916 325.645 272.929 325.645 272.942L325.642 274.014C325.642 273.97 325.649 273.925 325.654 273.881C325.658 273.834 325.661 273.786 325.67 273.739Z" fill="#2A2F6D"/>
<path d="M339.474 273.953C339.452 274.018 339.426 274.082 339.4 274.146C339.382 274.19 339.363 274.234 339.343 274.277C339.325 274.318 339.306 274.359 339.285 274.4C339.263 274.443 339.24 274.487 339.216 274.53C339.194 274.569 339.172 274.608 339.148 274.648C339.118 274.698 339.086 274.747 339.053 274.797C339.029 274.833 339.005 274.87 338.979 274.906C338.943 274.957 338.905 275.007 338.866 275.058C338.84 275.091 338.815 275.125 338.788 275.157C338.711 275.25 338.631 275.342 338.545 275.433C338.533 275.445 338.52 275.457 338.508 275.469C338.432 275.548 338.351 275.626 338.267 275.702C338.201 275.763 338.135 275.823 338.064 275.882L338.061 276.954C338.119 276.905 338.176 276.857 338.231 276.807C338.243 276.796 338.253 276.785 338.264 276.774C338.348 276.698 338.428 276.621 338.504 276.542C338.516 276.53 338.53 276.518 338.542 276.505C338.628 276.414 338.709 276.322 338.785 276.229C338.791 276.222 338.799 276.214 338.805 276.206C338.826 276.18 338.843 276.155 338.863 276.129C338.902 276.079 338.941 276.029 338.977 275.978C339.002 275.942 339.026 275.905 339.051 275.869C339.083 275.819 339.116 275.769 339.146 275.719C339.155 275.703 339.167 275.687 339.177 275.671C339.19 275.648 339.201 275.624 339.214 275.601C339.238 275.558 339.261 275.515 339.283 275.472C339.303 275.431 339.323 275.39 339.341 275.349C339.361 275.305 339.38 275.262 339.398 275.219C339.406 275.199 339.416 275.18 339.424 275.16C339.441 275.115 339.457 275.07 339.473 275.025H341.536L341.539 273.953H339.474Z" fill="#2A2F6D"/>
<path d="M322.596 276.953L322.599 275.881C321.882 275.289 321.403 274.632 321.166 273.953H319.103L319.1 275.026H321.163C321.4 275.704 321.878 276.361 322.596 276.953Z" fill="#2A2F6D"/>
<path d="M335.553 277.296C335.306 277.39 335.051 277.476 334.792 277.555C334.649 277.599 334.502 277.635 334.356 277.675C334.219 277.711 334.085 277.751 333.946 277.784C333.797 277.818 333.645 277.847 333.493 277.877C333.353 277.905 333.214 277.936 333.072 277.961C332.76 278.014 332.444 278.06 332.124 278.094L332.121 279.166C332.441 279.132 332.756 279.086 333.069 279.033C333.084 279.03 333.1 279.029 333.115 279.026C333.243 279.004 333.367 278.973 333.494 278.948C333.644 278.918 333.795 278.89 333.942 278.855C334.083 278.822 334.218 278.782 334.356 278.745C334.5 278.707 334.647 278.67 334.789 278.627C334.806 278.621 334.824 278.618 334.84 278.612C335.082 278.537 335.319 278.456 335.55 278.367L337.014 279.186L339.524 277.772L339.527 276.701L337.017 278.115L335.553 277.296Z" fill="#2A2F6D"/>
<path d="M328.564 278.094C328.34 278.07 328.12 278.037 327.899 278.003C327.741 277.979 327.584 277.952 327.428 277.924C327.291 277.898 327.154 277.871 327.019 277.843C326.833 277.803 326.649 277.758 326.467 277.711C326.323 277.674 326.179 277.639 326.038 277.598C325.975 277.579 325.912 277.56 325.85 277.541C325.605 277.465 325.363 277.385 325.128 277.296C325.127 277.296 325.127 277.296 325.127 277.296L323.67 278.116L321.143 276.702L321.14 277.774L323.667 279.188L325.123 278.368C325.358 278.457 325.601 278.537 325.847 278.613C325.909 278.633 325.972 278.651 326.034 278.67C326.098 278.688 326.16 278.709 326.223 278.726C326.302 278.748 326.384 278.763 326.463 278.783C326.646 278.83 326.83 278.875 327.016 278.915C327.077 278.928 327.135 278.945 327.196 278.957C327.27 278.972 327.348 278.982 327.424 278.996C327.581 279.025 327.738 279.051 327.897 279.076C327.969 279.086 328.039 279.102 328.112 279.112C328.261 279.132 328.41 279.151 328.559 279.167L328.561 279.167L328.567 280.325H332.128L332.131 279.253H328.571L328.564 278.094Z" fill="#2A2F6D"/>
<path d="M337.017 278.115L335.553 277.296C334.5 277.697 333.332 277.964 332.124 278.094L332.131 279.253H328.57L328.564 278.094C327.354 277.963 326.183 277.697 325.126 277.296L323.67 278.116L321.143 276.702L322.599 275.882C321.882 275.289 321.403 274.632 321.166 273.954H319.103L319.091 271.954H321.154C321.384 271.276 321.856 270.62 322.565 270.026L321.102 269.207L323.612 267.793L325.076 268.612C326.131 268.212 327.297 267.944 328.504 267.813L328.498 266.655H332.058L332.065 267.813C333.274 267.944 334.443 268.212 335.503 268.612L336.957 267.793L339.484 269.207L338.03 270.026C338.745 270.62 339.226 271.276 339.463 271.955H341.526L341.538 273.954H339.475C339.245 274.633 338.775 275.29 338.064 275.882L339.528 276.701L337.017 278.115ZM327.024 274.809C328.853 275.833 331.807 275.832 333.625 274.808C335.443 273.784 335.435 272.125 333.606 271.101C331.776 270.077 328.82 270.077 327.002 271.101C325.184 272.125 325.194 273.785 327.024 274.809Z" fill="white"/>
<path d="M332.885 279.762L332.879 278.815L332.877 279.691L332.882 280.638L332.885 279.762Z" fill="#BD8AAE"/>
<path d="M341.855 280.9L340.667 281.57L340.664 282.446L341.852 281.776L341.855 280.9Z" fill="#BD8AAE"/>
<path d="M328.033 281.57L326.837 280.9L326.834 281.776L328.03 282.446L328.033 281.57Z" fill="#BD8AAE"/>
<path d="M330.569 284.603C330.575 284.572 330.585 284.54 330.594 284.509C330.604 284.472 330.613 284.435 330.626 284.398C330.638 284.368 330.652 284.338 330.666 284.308C330.683 284.269 330.7 284.231 330.721 284.193C330.737 284.165 330.755 284.138 330.773 284.11C330.8 284.067 330.83 284.024 330.862 283.982C330.882 283.956 330.903 283.931 330.924 283.907C330.973 283.849 331.027 283.793 331.086 283.738C331.107 283.718 331.126 283.698 331.149 283.678C331.185 283.646 331.226 283.615 331.266 283.584C331.301 283.557 331.335 283.529 331.372 283.503C331.415 283.472 331.463 283.443 331.51 283.414C331.557 283.384 331.603 283.353 331.654 283.324C331.768 283.259 331.89 283.202 332.014 283.147C332.05 283.131 332.086 283.117 332.122 283.102C332.22 283.062 332.32 283.026 332.423 282.992C332.459 282.98 332.495 282.966 332.532 282.955C332.597 282.936 332.662 282.918 332.728 282.901C332.778 282.888 332.828 282.873 332.879 282.862C332.947 282.845 333.018 282.832 333.088 282.818C333.137 282.808 333.185 282.798 333.233 282.789C333.376 282.765 333.521 282.746 333.667 282.731C333.712 282.726 333.757 282.724 333.802 282.72C333.888 282.713 333.974 282.707 334.06 282.703C334.115 282.701 334.17 282.7 334.226 282.699C334.295 282.698 334.365 282.697 334.435 282.698C334.493 282.699 334.551 282.7 334.61 282.703C334.674 282.705 334.739 282.708 334.803 282.712C334.862 282.716 334.921 282.721 334.979 282.727C335.043 282.733 335.107 282.74 335.17 282.748C335.227 282.755 335.284 282.762 335.34 282.771C335.408 282.781 335.476 282.793 335.542 282.805C335.595 282.815 335.648 282.825 335.7 282.836C335.78 282.853 335.859 282.872 335.937 282.892C335.981 282.904 336.025 282.914 336.068 282.926C336.208 282.966 336.345 283.011 336.477 283.06C336.543 283.085 336.606 283.113 336.67 283.14C336.703 283.154 336.737 283.167 336.769 283.182C336.865 283.226 336.959 283.273 337.049 283.323C337.8 283.744 338.176 284.296 338.174 284.847L338.176 283.971C338.178 283.42 337.803 282.868 337.051 282.447C336.961 282.397 336.867 282.35 336.771 282.306C336.739 282.291 336.705 282.278 336.672 282.264C336.615 282.239 336.559 282.214 336.5 282.191C336.494 282.189 336.486 282.187 336.479 282.185C336.347 282.134 336.21 282.09 336.07 282.051C336.059 282.048 336.048 282.043 336.037 282.04C336.005 282.031 335.972 282.025 335.94 282.017C335.862 281.997 335.783 281.977 335.703 281.96C335.681 281.956 335.661 281.949 335.64 281.945C335.608 281.939 335.576 281.935 335.545 281.929C335.478 281.917 335.411 281.905 335.342 281.895C335.315 281.891 335.289 281.885 335.262 281.882C335.232 281.877 335.202 281.875 335.172 281.872C335.109 281.864 335.045 281.857 334.982 281.851C334.951 281.848 334.921 281.843 334.891 281.841C334.862 281.839 334.834 281.838 334.806 281.837C334.741 281.832 334.676 281.829 334.612 281.826C334.579 281.825 334.547 281.822 334.515 281.822C334.489 281.821 334.464 281.822 334.438 281.822C334.368 281.821 334.298 281.822 334.228 281.823C334.193 281.823 334.159 281.822 334.125 281.823C334.104 281.824 334.084 281.826 334.063 281.827C333.977 281.831 333.891 281.837 333.805 281.843C333.771 281.846 333.736 281.847 333.701 281.85C333.69 281.851 333.68 281.854 333.67 281.855C333.524 281.869 333.379 281.889 333.236 281.913C333.229 281.914 333.222 281.915 333.215 281.916C333.174 281.923 333.134 281.934 333.093 281.942C333.022 281.956 332.951 281.969 332.881 281.986C332.83 281.998 332.782 282.011 332.732 282.025C332.666 282.042 332.599 282.059 332.535 282.079C332.521 282.083 332.506 282.087 332.493 282.091C332.469 282.098 332.448 282.108 332.425 282.116C332.323 282.15 332.223 282.186 332.125 282.226C332.089 282.241 332.052 282.255 332.016 282.271C331.892 282.325 331.771 282.383 331.657 282.447C331.641 282.456 331.626 282.465 331.61 282.474C331.575 282.494 331.545 282.516 331.512 282.537C331.465 282.567 331.418 282.596 331.374 282.626C331.337 282.653 331.303 282.68 331.268 282.708C331.228 282.739 331.187 282.77 331.151 282.802C331.144 282.808 331.135 282.814 331.127 282.821C331.112 282.834 331.102 282.849 331.088 282.862C331.029 282.917 330.975 282.973 330.926 283.031C330.916 283.043 330.901 283.055 330.891 283.068C330.881 283.08 330.874 283.093 330.865 283.105C330.832 283.148 330.803 283.191 330.775 283.234C330.763 283.253 330.748 283.27 330.737 283.288C330.732 283.298 330.729 283.307 330.724 283.316C330.703 283.355 330.685 283.393 330.668 283.432C330.658 283.454 330.644 283.476 330.636 283.499C330.633 283.506 330.632 283.514 330.629 283.522C330.616 283.558 330.606 283.595 330.596 283.632C330.589 283.657 330.579 283.682 330.574 283.707C330.572 283.714 330.573 283.72 330.572 283.727C330.564 283.766 330.561 283.805 330.558 283.843C330.556 283.869 330.55 283.894 330.549 283.919C330.549 283.93 330.549 283.941 330.549 283.951L330.546 284.827C330.546 284.791 330.552 284.755 330.555 284.718C330.559 284.681 330.562 284.642 330.569 284.603Z" fill="#BD8AAE"/>
<path d="M341.847 284.779C341.829 284.831 341.808 284.884 341.786 284.936C341.772 284.972 341.756 285.008 341.74 285.043C341.725 285.077 341.709 285.11 341.692 285.144C341.674 285.179 341.655 285.214 341.636 285.249C341.618 285.282 341.599 285.314 341.58 285.346C341.556 285.387 341.529 285.427 341.503 285.468C341.483 285.498 341.463 285.528 341.442 285.557C341.413 285.599 341.381 285.64 341.349 285.681C341.328 285.708 341.307 285.735 341.285 285.762C341.223 285.838 341.157 285.913 341.087 285.987C341.077 285.998 341.066 286.007 341.057 286.017C340.994 286.081 340.929 286.145 340.86 286.207C340.806 286.256 340.751 286.306 340.694 286.354L340.691 287.23C340.739 287.19 340.785 287.15 340.83 287.11C340.84 287.101 340.848 287.092 340.857 287.083C340.926 287.021 340.991 286.958 341.053 286.894C341.063 286.884 341.074 286.873 341.084 286.863C341.154 286.789 341.22 286.714 341.283 286.638C341.288 286.632 341.294 286.626 341.299 286.619C341.316 286.599 341.33 286.577 341.346 286.556C341.378 286.515 341.409 286.474 341.439 286.433C341.46 286.403 341.48 286.374 341.499 286.344C341.526 286.303 341.553 286.263 341.577 286.222C341.585 286.209 341.595 286.195 341.603 286.182C341.614 286.163 341.622 286.144 341.633 286.125C341.652 286.09 341.671 286.055 341.689 286.019C341.706 285.986 341.722 285.952 341.737 285.919C341.754 285.883 341.769 285.848 341.784 285.812C341.79 285.796 341.798 285.781 341.804 285.765C341.818 285.728 341.832 285.691 341.844 285.654H343.53L343.533 284.779H341.847Z" fill="#BD8AAE"/>
<path d="M328.058 287.23L328.061 286.354C327.474 285.87 327.083 285.333 326.89 284.779H325.204L325.201 285.654H326.887C327.08 286.209 327.471 286.746 328.058 287.23Z" fill="#BD8AAE"/>
<path d="M338.644 287.509C338.442 287.586 338.233 287.656 338.022 287.721C337.905 287.757 337.785 287.786 337.666 287.818C337.554 287.848 337.444 287.881 337.331 287.908C337.209 287.936 337.085 287.959 336.961 287.984C336.847 288.007 336.733 288.033 336.617 288.052C336.362 288.096 336.104 288.133 335.843 288.161L335.84 289.037C336.101 289.009 336.359 288.972 336.614 288.928C336.626 288.926 336.64 288.925 336.652 288.923C336.756 288.905 336.858 288.88 336.961 288.859C337.083 288.834 337.207 288.812 337.328 288.783C337.442 288.756 337.553 288.723 337.665 288.693C337.784 288.661 337.903 288.632 338.019 288.596C338.033 288.592 338.048 288.589 338.061 288.584C338.259 288.523 338.452 288.456 338.641 288.384L339.837 289.054L341.888 287.899L341.89 287.023L339.839 288.178L338.644 287.509Z" fill="#BD8AAE"/>
<path d="M332.934 288.161C332.751 288.142 332.571 288.114 332.39 288.087C332.261 288.067 332.133 288.046 332.005 288.022C331.893 288.001 331.782 287.979 331.671 287.955C331.519 287.923 331.369 287.886 331.22 287.848C331.102 287.818 330.984 287.789 330.869 287.755C330.818 287.74 330.767 287.725 330.716 287.709C330.516 287.647 330.318 287.582 330.126 287.509L330.125 287.509L328.935 288.179L326.871 287.023L326.869 287.899L328.933 289.055L330.122 288.384C330.315 288.457 330.513 288.522 330.714 288.585C330.765 288.601 330.815 288.616 330.867 288.631C330.918 288.646 330.969 288.663 331.021 288.677C331.085 288.695 331.152 288.707 331.217 288.724C331.366 288.762 331.517 288.798 331.669 288.831C331.718 288.841 331.766 288.856 331.816 288.865C331.877 288.878 331.94 288.886 332.002 288.897C332.13 288.921 332.259 288.942 332.388 288.962C332.447 288.971 332.505 288.983 332.564 288.991C332.685 289.008 332.807 289.023 332.93 289.036H332.931L332.936 289.983H335.845L335.848 289.107H332.939L332.934 288.161Z" fill="#BD8AAE"/>
<path d="M339.84 288.179L338.644 287.509C337.784 287.837 336.829 288.055 335.843 288.162L335.848 289.108H332.939L332.934 288.162C331.946 288.055 330.989 287.837 330.125 287.509L328.935 288.179L326.871 287.024L328.06 286.354C327.474 285.87 327.083 285.333 326.889 284.778H325.204L325.194 283.145H326.88C327.067 282.59 327.454 282.055 328.033 281.569L326.837 280.9L328.888 279.744L330.083 280.414C330.945 280.087 331.898 279.868 332.885 279.761L332.879 278.815H335.788L335.794 279.761C336.781 279.868 337.737 280.087 338.603 280.414L339.791 279.744L341.855 280.9L340.667 281.569C341.251 282.054 341.644 282.59 341.838 283.145H343.523L343.533 284.778H341.847C341.66 285.333 341.275 285.869 340.695 286.354L341.89 287.023L339.84 288.179ZM331.675 285.478C333.17 286.314 335.583 286.313 337.068 285.476C338.553 284.64 338.547 283.284 337.052 282.448C335.558 281.611 333.142 281.611 331.658 282.448C330.173 283.285 330.18 284.641 331.675 285.478Z" fill="white"/>
<path d="M434.68 280.084L399.187 260.227C398.101 259.621 396.856 259.647 395.634 260.364L395.633 260.363L387.84 264.726L391.463 269.489L392.813 270.989V305.08C392.813 307.11 393.93 308.986 395.742 310.002L422.307 324.892L422.579 326.323L427.999 333.688L436.336 328.936C436.351 328.928 436.365 328.921 436.378 328.912L436.434 328.881V328.877C437.179 328.427 437.705 327.635 437.705 326.663L437.706 285.162C437.706 283.067 436.552 281.13 434.68 280.084Z" fill="url(#paint12_linear_53_2303)"/>
<path d="M426.383 284.812L390.472 264.723C388.719 263.743 386.53 264.97 386.53 266.931V308.606C386.53 310.635 387.646 312.512 389.459 313.527L425.366 333.654C427.162 334.661 429.409 333.404 429.409 331.392L429.41 289.891C429.41 287.795 428.256 285.859 426.383 284.812Z" fill="url(#paint13_linear_53_2303)"/>
<path d="M428.052 333.658L427.999 333.689L427.995 333.682C428.013 333.672 428.034 333.668 428.052 333.658Z" fill="url(#paint14_linear_53_2303)"/>
<path d="M429.41 331.391L429.411 289.891C429.411 289.191 429.241 288.528 429 287.891L437.329 283.239C437.551 283.853 437.707 284.492 437.707 285.162L437.706 326.663C437.706 327.635 437.18 328.427 436.435 328.877V328.881L436.379 328.912C436.365 328.92 436.351 328.928 436.337 328.936L428.071 333.647C428.852 333.206 429.41 332.393 429.41 331.391Z" fill="url(#paint15_linear_53_2303)"/>
<path d="M430.597 347.86L430.299 346.294L403.501 331.274C401.874 330.362 400.864 328.664 400.864 326.843V292.54L399.386 290.897L396.164 286.662L403.076 282.793L403.083 282.798L403.404 282.611C403.951 282.289 404.501 282.126 405.039 282.126C405.496 282.126 405.941 282.245 406.362 282.48L441.854 302.337C443.541 303.279 444.589 305.037 444.589 306.925L444.588 348.425C444.588 349.144 444.225 349.776 443.592 350.159L443.507 350.21L435.631 354.699L430.597 347.86Z" fill="url(#paint16_linear_53_2303)"/>
<path d="M405.039 282.692C405.393 282.692 405.74 282.786 406.07 282.971L441.563 302.828C443.07 303.669 444.005 305.239 444.005 306.925L444.004 348.425C444.004 348.944 443.742 349.401 443.284 349.678L443.228 349.712L443.212 349.722L435.796 353.948L431.148 347.633L430.923 346.449L430.825 345.935L430.359 345.673L403.794 330.784C402.347 329.973 401.448 328.462 401.448 326.843V292.752V292.327L401.161 292.007L399.842 290.541L397.023 286.835L402.836 283.58L402.851 283.597L403.706 283.094C404.161 282.828 404.61 282.692 405.039 282.692ZM405.039 281.56C404.404 281.56 403.749 281.746 403.1 282.127L403.1 282.126L395.306 286.489L398.93 291.252L400.28 292.752V326.843C400.28 328.873 401.397 330.748 403.209 331.765L429.773 346.654L430.045 348.086L435.466 355.45L443.803 350.699C443.817 350.691 443.832 350.683 443.845 350.675L443.901 350.644V350.64C444.645 350.19 445.172 349.398 445.172 348.426L445.173 306.926C445.173 304.83 444.019 302.893 442.146 301.847L406.653 281.991C406.144 281.705 405.599 281.56 405.039 281.56Z" fill="#FDFEFE"/>
<path d="M434.177 355.204C433.809 355.204 433.455 355.11 433.125 354.925L397.219 334.799C395.591 333.888 394.581 332.19 394.581 330.369V288.693C394.581 287.466 395.644 286.706 396.63 286.706C396.986 286.706 397.328 286.797 397.647 286.975L433.558 307.065C435.245 308.007 436.293 309.765 436.293 311.653L436.292 353.154C436.292 353.718 436.064 354.241 435.651 354.625C435.254 354.993 434.717 355.204 434.177 355.204Z" fill="url(#paint17_linear_53_2303)"/>
<path d="M396.63 287.273C396.882 287.273 397.126 287.337 397.354 287.465L433.266 307.555C434.773 308.397 435.709 309.967 435.709 311.653L435.708 353.154C435.708 354.07 434.913 354.638 434.177 354.638C433.912 354.638 433.657 354.569 433.417 354.435L397.51 334.309C396.063 333.498 395.165 331.988 395.165 330.368V288.693C395.165 287.815 395.925 287.273 396.63 287.273ZM396.63 286.14C395.256 286.14 393.997 287.205 393.997 288.693V330.368C393.997 332.397 395.113 334.273 396.926 335.289L432.833 355.415C433.267 355.659 433.728 355.77 434.177 355.77C435.585 355.77 436.876 354.679 436.876 353.153L436.877 311.653C436.877 309.557 435.723 307.621 433.85 306.574L397.938 286.484C397.515 286.248 397.067 286.14 396.63 286.14Z" fill="#FDFEFE"/>
<path d="M435.519 355.42L435.466 355.45L435.461 355.444C435.48 355.434 435.501 355.431 435.519 355.42Z" fill="url(#paint18_linear_53_2303)"/>
<path d="M435.519 355.42L435.518 355.421L435.519 355.42ZM435.518 355.421C435.501 355.431 435.48 355.435 435.461 355.444L435.466 355.451L435.518 355.421Z" fill="#FDFEFE"/>
<path d="M437.415 353.682C437.445 353.509 437.46 353.333 437.46 353.154L437.461 311.652C437.461 311.101 437.366 310.528 437.172 309.912L444.448 305.849C444.544 306.231 444.589 306.582 444.589 306.925L444.588 348.425C444.588 349.144 444.225 349.776 443.592 350.158L443.492 350.218L437.415 353.682Z" fill="url(#paint19_linear_53_2303)"/>
<path d="M444.001 306.753C444.004 306.81 444.005 306.868 444.005 306.925L444.005 348.425C444.005 348.944 443.742 349.401 443.285 349.677L443.207 349.725L438.045 352.667L438.046 311.653C438.046 311.18 437.983 310.694 437.855 310.185L444.001 306.753ZM444.796 305.002L436.467 309.653C436.708 310.29 436.877 310.953 436.877 311.653L436.877 353.154C436.877 354.147 436.328 354.955 435.557 355.399L443.804 350.699C443.818 350.691 443.832 350.683 443.846 350.675L443.902 350.644V350.639C444.646 350.19 445.173 349.398 445.173 348.425L445.173 306.925C445.173 306.254 445.018 305.616 444.796 305.002ZM435.557 355.399L435.537 355.41C435.544 355.406 435.55 355.402 435.557 355.399Z" fill="#FDFEFE"/>
<path d="M414.855 309.262C414.853 309.757 414.768 310.074 414.609 310.235C414.445 310.388 414.192 310.372 413.846 310.178C413.599 310.039 413.341 309.849 413.071 309.603L413.066 311.264C413.328 311.53 413.678 311.783 414.122 312.031C414.594 312.296 415.019 312.404 415.39 312.35C415.764 312.299 416.05 312.084 416.252 311.702C416.459 311.322 416.564 310.797 416.566 310.125L416.595 300.199L414.885 299.242L414.855 309.262Z" fill="white"/>
<path d="M419.619 309.561L422.015 310.903L422.536 313.78L424.25 314.74L422.001 303.184L419.678 301.884L417.373 310.89L419.083 311.847L419.619 309.561ZM420.628 305.121C420.714 304.684 420.785 304.281 420.838 303.909C420.861 304.115 420.92 304.539 421.021 305.179C421.123 305.815 421.187 306.216 421.214 306.377L421.698 309.03L419.965 308.06C420.32 306.534 420.543 305.558 420.628 305.121Z" fill="white"/>
<path d="M428.404 317.065L430.598 308.037L428.878 307.075L427.668 312.659C427.531 313.27 427.421 313.971 427.33 314.764C427.225 313.709 427.125 312.892 427.014 312.293L425.832 305.37L424.113 304.407L426.232 315.849L428.404 317.065Z" fill="white"/>
<path d="M432.11 319.139L432.645 316.853L435.037 318.192L435.558 321.069L437.277 322.031L435.023 310.472L432.705 309.175L430.4 318.182L432.11 319.139ZM433.65 312.41C433.736 311.973 433.807 311.57 433.865 311.201C433.883 311.404 433.942 311.828 434.043 312.469C434.145 313.104 434.213 313.507 434.241 313.669L434.725 316.322L432.987 315.35C433.346 313.825 433.564 312.847 433.65 312.41Z" fill="white"/>
<path d="M430.347 322.698L417.373 315.414V316.054L430.347 323.338V322.698Z" fill="white"/>
<path d="M417.373 317.31L437.277 328.471V327.832L417.373 316.67V317.31Z" fill="white"/>
<path d="M431.215 323.812L437.277 327.215V326.576L431.215 323.172V323.812Z" fill="white"/>
<path d="M430.347 325.149L417.373 317.865V318.505L430.347 325.789V325.149Z" fill="white"/>
<path d="M417.373 319.761L437.277 330.923V330.283L417.373 319.121V319.761Z" fill="white"/>
<path d="M431.215 326.263L437.277 329.667V329.027L431.215 325.623V326.263Z" fill="white"/>
<path d="M430.347 328.692L417.373 321.407V322.047L430.347 329.331V328.692Z" fill="white"/>
<path d="M417.373 323.304L437.277 334.465V333.825L417.373 322.664V323.304Z" fill="white"/>
<path d="M431.215 329.805L437.277 333.209V332.569L431.215 329.165V329.805Z" fill="white"/>
<path d="M430.347 331.143L417.373 323.859V324.498L430.347 331.783V331.143Z" fill="white"/>
<path d="M417.373 325.755L437.277 336.917V336.277L417.373 325.115V325.755Z" fill="white"/>
<path d="M431.215 332.257L437.277 335.66V335.02L431.215 331.617V332.257Z" fill="white"/>
<path d="M430.347 334.685L417.373 327.401V328.04L430.347 335.325V334.685Z" fill="white"/>
<path d="M417.373 329.297L437.277 340.459V339.819L417.373 328.657V329.297Z" fill="white"/>
<path d="M431.215 335.798L437.277 339.202V338.562L431.215 335.159V335.798Z" fill="white"/>
<path d="M430.347 337.136L417.373 329.852V330.492L430.347 337.776V337.136Z" fill="white"/>
<path d="M417.373 331.749L437.277 342.91V342.27L417.373 331.109V331.749Z" fill="white"/>
<path d="M431.215 338.25L437.277 341.654V341.014L431.215 337.61V338.25Z" fill="white"/>
<path d="M430.347 340.678L417.373 333.394V334.034L430.347 341.318V340.678Z" fill="white"/>
<path d="M417.373 335.29L437.277 346.452V345.812L417.373 334.651V335.29Z" fill="white"/>
<path d="M431.215 341.792L437.277 345.196V344.556L431.215 341.153V341.792Z" fill="white"/>
<path d="M430.347 343.13L417.373 335.846V336.485L430.347 343.769V343.13Z" fill="white"/>
<path d="M417.373 337.742L437.277 348.903V348.263L417.373 337.102V337.742Z" fill="white"/>
<path d="M431.215 344.244L437.277 347.647V347.007L431.215 343.604V344.244Z" fill="white"/>
<g opacity="0.46">
<path opacity="0.46" d="M396.618 353.097L329.417 390.613C326.871 392.035 323.691 390.252 323.691 387.403V367.237C323.691 365.912 324.42 364.688 325.605 364.027L392.805 326.51C395.352 325.088 398.532 326.871 398.532 329.72V349.887C398.532 351.212 397.802 352.436 396.618 353.097Z" fill="#CDE9F9"/>
</g>
<g opacity="0.46">
<path opacity="0.46" d="M479.672 321.982L412.472 359.498C409.925 360.92 406.745 359.137 406.745 356.288V336.122C406.745 334.797 407.474 333.573 408.659 332.912L475.859 295.395C478.406 293.973 481.586 295.756 481.586 298.605V318.772C481.586 320.097 480.857 321.321 479.672 321.982Z" fill="#CDE9F9"/>
</g>
<g opacity="0.46">
<path opacity="0.46" d="M485.955 281.301L418.754 318.817C416.208 320.239 413.028 318.456 413.028 315.607V295.441C413.028 294.116 413.757 292.892 414.942 292.231L482.142 254.714C484.689 253.292 487.869 255.075 487.869 257.924V278.091C487.869 279.415 487.139 280.639 485.955 281.301Z" fill="#CDE9F9"/>
</g>
<defs>
<linearGradient id="paint0_linear_53_2303" x1="298.896" y1="193.143" x2="471.065" y2="193.143" gradientUnits="userSpaceOnUse">
<stop stop-color="#21409A"/>
<stop offset="0.9984" stop-color="#29ABE2" stop-opacity="0"/>
</linearGradient>
<linearGradient id="paint1_linear_53_2303" x1="362.126" y1="199.297" x2="464.152" y2="199.297" gradientUnits="userSpaceOnUse">
<stop offset="0.5191" stop-color="#21285A"/>
<stop offset="0.7064" stop-color="#21295A" stop-opacity="0.6104"/>
<stop offset="0.7739" stop-color="#222D5E" stop-opacity="0.4701"/>
<stop offset="0.822" stop-color="#233463" stop-opacity="0.37"/>
<stop offset="0.861" stop-color="#253E6B" stop-opacity="0.2891"/>
<stop offset="0.8943" stop-color="#274A77" stop-opacity="0.2198"/>
<stop offset="0.9238" stop-color="#2A5986" stop-opacity="0.1584"/>
<stop offset="0.9505" stop-color="#2E6D9A" stop-opacity="0.1029"/>
<stop offset="0.975" stop-color="#2F85B5" stop-opacity="0.0519"/>
<stop offset="0.9969" stop-color="#2CA5D9" stop-opacity="0.01"/>
<stop offset="1" stop-color="#29ABE2" stop-opacity="0"/>
</linearGradient>
<linearGradient id="paint2_linear_53_2303" x1="362.41" y1="175.202" x2="394.545" y2="175.202" gradientUnits="userSpaceOnUse">
<stop offset="0.0607" stop-color="#28A8E0"/>
<stop offset="0.9984" stop-color="#29ABE2" stop-opacity="0"/>
</linearGradient>
<linearGradient id="paint3_linear_53_2303" x1="311.503" y1="145.486" x2="356.139" y2="145.486" gradientUnits="userSpaceOnUse">
<stop offset="0.5191" stop-color="#21285A"/>
<stop offset="0.7064" stop-color="#21295A" stop-opacity="0.6104"/>
<stop offset="0.7739" stop-color="#222D5E" stop-opacity="0.4701"/>
<stop offset="0.822" stop-color="#233463" stop-opacity="0.37"/>
<stop offset="0.861" stop-color="#253E6B" stop-opacity="0.2891"/>
<stop offset="0.8943" stop-color="#274A77" stop-opacity="0.2198"/>
<stop offset="0.9238" stop-color="#2A5986" stop-opacity="0.1584"/>
<stop offset="0.9505" stop-color="#2E6D9A" stop-opacity="0.1029"/>
<stop offset="0.975" stop-color="#2F85B5" stop-opacity="0.0519"/>
<stop offset="0.9969" stop-color="#2CA5D9" stop-opacity="0.01"/>
<stop offset="1" stop-color="#29ABE2" stop-opacity="0"/>
</linearGradient>
<linearGradient id="paint4_linear_53_2303" x1="305.273" y1="146.619" x2="349.909" y2="146.619" gradientUnits="userSpaceOnUse">
<stop stop-color="#21409A"/>
<stop offset="0.9984" stop-color="#29ABE2" stop-opacity="0"/>
</linearGradient>
<linearGradient id="paint5_linear_53_2303" x1="225.372" y1="217.21" x2="243.593" y2="217.21" gradientUnits="userSpaceOnUse">
<stop stop-color="#6B385F"/>
<stop offset="0.4197" stop-color="#6F3B62" stop-opacity="0.7323"/>
<stop offset="0.5218" stop-color="#764268" stop-opacity="0.6035"/>
<stop offset="0.6937" stop-color="#8C567A" stop-opacity="0.3865"/>
<stop offset="0.9131" stop-color="#B5799B" stop-opacity="0.1096"/>
<stop offset="1" stop-color="#CC8DAE" stop-opacity="0"/>
</linearGradient>
<linearGradient id="paint6_linear_53_2303" x1="281.715" y1="163.752" x2="307.641" y2="163.752" gradientUnits="userSpaceOnUse">
<stop stop-color="#6B385F"/>
<stop offset="0.4197" stop-color="#6F3B62" stop-opacity="0.7323"/>
<stop offset="0.5218" stop-color="#764268" stop-opacity="0.6035"/>
<stop offset="0.6937" stop-color="#8C567A" stop-opacity="0.3865"/>
<stop offset="0.9131" stop-color="#B5799B" stop-opacity="0.1096"/>
<stop offset="1" stop-color="#CC8DAE" stop-opacity="0"/>
</linearGradient>
<linearGradient id="paint7_linear_53_2303" x1="209.573" y1="198.593" x2="309.188" y2="198.593" gradientUnits="userSpaceOnUse">
<stop offset="0.0607" stop-color="#28A8E0"/>
<stop offset="0.9984" stop-color="#29ABE2" stop-opacity="0"/>
</linearGradient>
<linearGradient id="paint8_linear_53_2303" x1="217.468" y1="211.129" x2="259.416" y2="211.129" gradientUnits="userSpaceOnUse">
<stop offset="0.4247" stop-color="white"/>
<stop offset="1" stop-color="#2484C6" stop-opacity="0"/>
</linearGradient>
<linearGradient id="paint9_linear_53_2303" x1="272.53" y1="230.944" x2="290.751" y2="230.944" gradientUnits="userSpaceOnUse">
<stop stop-color="#6B385F"/>
<stop offset="0.4197" stop-color="#6F3B62" stop-opacity="0.7323"/>
<stop offset="0.5218" stop-color="#764268" stop-opacity="0.6035"/>
<stop offset="0.6937" stop-color="#8C567A" stop-opacity="0.3865"/>
<stop offset="0.9131" stop-color="#B5799B" stop-opacity="0.1096"/>
<stop offset="1" stop-color="#CC8DAE" stop-opacity="0"/>
</linearGradient>
<linearGradient id="paint10_linear_53_2303" x1="340.918" y1="241.717" x2="366.845" y2="241.717" gradientUnits="userSpaceOnUse">
<stop stop-color="#6B385F"/>
<stop offset="0.4197" stop-color="#6F3B62" stop-opacity="0.7323"/>
<stop offset="0.5218" stop-color="#764268" stop-opacity="0.6035"/>
<stop offset="0.6937" stop-color="#8C567A" stop-opacity="0.3865"/>
<stop offset="0.9131" stop-color="#B5799B" stop-opacity="0.1096"/>
<stop offset="1" stop-color="#CC8DAE" stop-opacity="0"/>
</linearGradient>
<linearGradient id="paint11_linear_53_2303" x1="309.097" y1="303.2" x2="354.231" y2="303.2" gradientUnits="userSpaceOnUse">
<stop offset="0.0607" stop-color="#28A8E0"/>
<stop offset="0.9984" stop-color="#29ABE2" stop-opacity="0"/>
</linearGradient>
<linearGradient id="paint12_linear_53_2303" x1="387.84" y1="296.743" x2="437.706" y2="296.743" gradientUnits="userSpaceOnUse">
<stop stop-color="#21409A"/>
<stop offset="0.9984" stop-color="#29ABE2" stop-opacity="0"/>
</linearGradient>
<linearGradient id="paint13_linear_53_2303" x1="386.53" y1="299.193" x2="429.41" y2="299.193" gradientUnits="userSpaceOnUse">
<stop stop-color="#21409A"/>
<stop offset="0.9984" stop-color="#29ABE2" stop-opacity="0"/>
</linearGradient>
<linearGradient id="paint14_linear_53_2303" x1="427.995" y1="333.673" x2="428.052" y2="333.673" gradientUnits="userSpaceOnUse">
<stop stop-color="#21409A"/>
<stop offset="0.9984" stop-color="#29ABE2" stop-opacity="0"/>
</linearGradient>
<linearGradient id="paint15_linear_53_2303" x1="428.071" y1="308.444" x2="437.707" y2="308.444" gradientUnits="userSpaceOnUse">
<stop stop-color="#21409A"/>
<stop offset="0.9984" stop-color="#29ABE2" stop-opacity="0"/>
</linearGradient>
<linearGradient id="paint16_linear_53_2303" x1="396.164" y1="318.413" x2="444.589" y2="318.413" gradientUnits="userSpaceOnUse">
<stop offset="0.0607" stop-color="#28A8E0"/>
<stop offset="0.9984" stop-color="#29ABE2" stop-opacity="0"/>
</linearGradient>
<linearGradient id="paint17_linear_53_2303" x1="394.581" y1="320.955" x2="436.292" y2="320.955" gradientUnits="userSpaceOnUse">
<stop offset="0.0607" stop-color="#28A8E0"/>
<stop offset="0.9984" stop-color="#29ABE2" stop-opacity="0"/>
</linearGradient>
<linearGradient id="paint18_linear_53_2303" x1="435.461" y1="355.435" x2="435.519" y2="355.435" gradientUnits="userSpaceOnUse">
<stop offset="0.0607" stop-color="#28A8E0"/>
<stop offset="0.9984" stop-color="#29ABE2" stop-opacity="0"/>
</linearGradient>
<linearGradient id="paint19_linear_53_2303" x1="437.172" y1="329.766" x2="444.589" y2="329.766" gradientUnits="userSpaceOnUse">
<stop offset="0.0607" stop-color="#28A8E0"/>
<stop offset="0.9984" stop-color="#29ABE2" stop-opacity="0"/>
</linearGradient>
</defs>
</svg>
